<?xml version="1.0" standalone="no"?>
<!DOCTYPE svg PUBLIC "-//W3C//DTD SVG 20010904//EN"
 "http://www.w3.org/TR/2001/REC-SVG-20010904/DTD/svg10.dtd">
<svg version="1.0" xmlns="http://www.w3.org/2000/svg"
 width="500.000000pt" height="500.000000pt" viewBox="0 0 500.000000 500.000000"
 preserveAspectRatio="xMidYMid meet">

<g transform="translate(0.000000,500.000000) scale(0.100000,-0.100000)"
fill="#000000" stroke="none">
<path d="M0 2500 l0 -2500 2500 0 2500 0 0 2500 0 2500 -2500 0 -2500 0 0
-2500z m2602 1759 c48 -24 93 -81 108 -135 20 -69 6 -122 -55 -214 -74 -112
-96 -174 -102 -290 -8 -148 26 -263 110 -374 44 -56 61 -115 53 -175 -6 -46
-16 -65 -78 -153 -56 -78 -81 -156 -86 -269 -7 -149 24 -254 107 -364 83 -109
81 -215 -5 -301 -50 -51 -98 -68 -174 -62 -114 8 -194 96 -194 212 1 66 13 97
63 160 69 86 104 200 103 332 -1 127 -34 222 -117 337 -74 103 -69 178 19 306
61 89 82 146 95 247 17 141 -20 285 -100 392 -49 65 -72 132 -64 186 23 154
178 234 317 165z m-1001 -950 c51 -16 105 -62 130 -112 32 -61 24 -161 -17
-219 -90 -128 -283 -124 -360 8 -68 115 -29 250 88 308 57 28 100 32 159 15z
m1930 0 c89 -27 148 -110 149 -208 0 -177 -190 -277 -338 -177 -66 45 -93 102
-89 188 4 87 38 141 116 181 59 29 102 33 162 16z m-1738 -1553 c51 -22 107
-93 107 -137 0 -5 -22 -9 -50 -9 -35 0 -50 4 -50 13 0 17 -39 53 -67 61 -12 4
-37 0 -57 -8 -46 -19 -59 -63 -55 -188 4 -86 7 -99 28 -122 26 -28 76 -35 112
-16 22 12 49 61 49 90 0 17 -6 20 -50 20 l-50 0 0 40 0 40 96 0 96 0 -4 -88
c-3 -79 -6 -93 -31 -125 -96 -126 -304 -86 -336 65 -13 60 -14 189 -1 242 11
51 38 86 86 113 46 26 127 31 177 9z m644 -2 c41 -20 81 -69 89 -112 l7 -32
-46 0 c-41 0 -48 3 -61 29 -27 51 -105 61 -143 19 -14 -16 -19 -41 -21 -125
-2 -57 -1 -115 2 -128 10 -39 45 -65 87 -65 32 0 43 6 66 35 24 30 34 35 71
35 49 0 54 -15 21 -69 -28 -46 -56 -67 -106 -82 -83 -23 -172 10 -215 79 -19
31 -23 53 -26 147 -6 162 19 229 100 268 43 21 131 21 175 1z m273 -69 l0 -86
30 16 c37 19 93 19 129 0 47 -24 61 -76 61 -225 l0 -130 -44 0 -44 0 -4 131
c-3 144 -10 159 -69 159 -49 0 -59 -29 -59 -167 l0 -123 -45 0 -45 0 0 255 0
255 45 0 45 0 0 -85z m810 -10 l0 -55 35 0 c33 0 35 -2 35 -35 0 -33 -2 -35
-35 -35 l-35 0 0 -98 c0 -104 7 -122 47 -122 20 0 23 -5 23 -35 l0 -35 -51 0
c-43 0 -55 5 -80 29 -29 29 -29 31 -29 145 0 109 -1 116 -20 116 -16 0 -20 7
-20 35 0 28 4 35 20 35 18 0 20 7 20 55 l0 55 45 0 45 0 0 -55z m-270 -60 c55
-28 60 -46 60 -207 l0 -148 -39 0 c-22 0 -41 5 -43 10 -2 6 -19 4 -45 -6 -54
-21 -107 -12 -145 26 -38 38 -41 115 -5 148 29 28 77 42 139 42 44 0 48 2 48
24 0 49 -72 72 -119 40 -22 -16 -24 -15 -54 14 l-30 30 34 21 c42 26 154 29
199 6z"/>
<path d="M3122 1410 c-29 -12 -37 -33 -22 -59 8 -16 20 -21 53 -21 52 0 67 13
67 57 0 32 -2 33 -37 32 -21 0 -48 -4 -61 -9z"/>
</g>
</svg>
